<?xml version="1.0" encoding="UTF-8" standalone="no"?>
<!DOCTYPE svg PUBLIC "-//W3C//DTD SVG 1.1//EN" "http://www.w3.org/Graphics/SVG/1.1/DTD/svg11.dtd">
<svg width="100%" height="100%" viewBox="0 0 1058 203" version="1.1" xmlns="http://www.w3.org/2000/svg" xmlns:xlink="http://www.w3.org/1999/xlink" xml:space="preserve" xmlns:serif="http://www.serif.com/" style="fill-rule:evenodd;clip-rule:evenodd;stroke-linejoin:round;stroke-miterlimit:2;">
    <g transform="matrix(1,0,0,1,-175.292901,-282.791078)">
        <g id="Background" transform="matrix(1.374023,0,0,1.374023,0,0)">
            <path d="M223.805,208.337C223.345,208.854 222.544,208.983 222.084,209.5C220.038,211.801 222.674,221.674 209.395,236.353C208.988,236.898 208.242,237.617 207.145,239.255C182.133,276.599 177.789,311.825 176.958,318.562C176.306,325.038 176.306,324.952 176.064,331.507C176.253,337.047 175.846,337.037 176.897,342.501C177.766,347.016 175.08,344.269 174.97,344.101C166.063,330.471 136.991,330.661 129.854,300.423C129.383,298.43 126.596,292.58 132.671,296.189C134.925,297.528 143.924,301.422 146.25,299.227C152.339,293.483 123.853,289.101 127.989,261.584C128.542,257.9 133.601,240.138 136.1,244.696C140.687,253.062 141.77,253.248 157.502,258.493C167.978,261.986 169.85,273.563 174.459,273.162C185.13,272.233 169.932,249.68 186.562,230.558C190.944,225.518 190.847,230.947 191.387,232.537C194.368,241.319 196.476,233.919 196.534,233.504C199.678,211.32 213.696,220.038 220.209,207.295C221.665,204.447 222.585,206.21 223.805,208.337Z" style="fill:rgb(71,140,63);"/>
            <path d="M380.059,270.504C378.648,284.404 375.027,283.713 369.898,287.904C367.232,290.082 385.778,314.72 380.602,314.93C368.439,315.422 367.912,314.5 367.384,313.577C360.202,301.019 358.166,291.487 353.502,291.42C352.859,291.41 345.933,291.311 345.54,292.514C344.884,294.521 346.406,313.895 344.591,314.667C344.327,314.78 332.611,315.868 332.208,313.587C332.148,313.245 331.88,253.598 332.356,252.428C333.004,250.839 362.759,250.643 368.566,253.339C378.759,258.07 379.283,263.857 380.059,270.504ZM352.502,262.054C347.228,262.222 346.041,260.728 345.428,263.484C345.2,264.511 345.391,276.38 345.409,277.501C345.485,282.197 349.824,281.087 356.517,280.931C365.225,280.73 366.929,273.359 366.557,270.496C365.253,260.46 355.603,262.127 352.502,262.054Z" style="fill:rgb(58,142,73);"/>
            <path d="M548.29,272.5C548.313,313.569 548.616,314.781 546.554,314.869C538.109,315.227 535.15,315.536 535.147,311.501C535.126,289.471 535.979,287.547 532.499,287.537C510.664,287.478 509.531,287.266 509.461,289.495C509.062,302.123 510.978,314.457 507.558,314.884C496.164,316.306 496.122,313.457 496.108,312.521C496.036,307.714 495.249,255.023 496.367,252.427C496.837,251.335 509.097,249.92 509.447,253.504C509.87,257.837 508.507,275.728 510.498,276.504C512.139,277.144 512.17,276.964 532.509,276.74C532.678,276.738 535.053,277.088 535.145,274.484C535.455,265.66 534.044,252.161 536.52,251.575C537.023,251.455 546.584,251.288 547.383,251.722C548.571,252.367 548.302,256.217 548.29,272.5Z" style="fill:rgb(57,141,72);"/>
            <path d="M703.498,288.774C701.414,289.002 701.417,288.957 701.248,289.021C699.241,289.771 700.601,309.081 700.175,313.438C699.979,315.43 695.001,314.979 694.482,314.526C692.639,312.914 693.705,258.402 693.8,253.523C693.836,251.7 694.598,250.587 716.501,251.482C718.685,251.572 737.605,252.345 737.035,269.506C736.592,282.857 730.369,283.903 725.816,286.953C724.013,288.162 724.924,289.006 737.824,311.294C739.982,315.022 737.629,315.757 733.436,314.792C731.561,314.36 731.686,313.952 720.842,294.3C715.973,285.475 713.56,288.824 703.498,288.774ZM713.507,257.135C709.018,257.122 701.446,256.81 700.704,257.673C699.328,259.277 700.189,279.624 700.27,281.531C700.36,283.664 704.939,283.376 716.486,283.228C727.376,283.088 730.998,274.816 730.452,269.503C729.053,255.874 715.636,257.231 713.507,257.135Z" style="fill:rgb(100,151,73);"/>
            <path d="M463.508,316.033C448.432,314.627 441.284,310.039 438.378,298.528C437.365,294.511 439.319,294.873 443.5,294.868C449.001,294.862 450.821,293.274 452.152,298.608C454.327,307.329 471.227,307.442 473.703,300.578C478.366,287.651 450.269,289.54 442.769,277.326C425.689,249.507 485.913,238.896 487.456,268.497C487.564,270.578 481.84,270.413 476.513,270.231C474.682,270.168 474.231,268.827 474.158,268.61C469.862,255.818 455.953,261.916 454.256,265.359C447.12,279.837 490.166,274.388 487.646,299.511C485.933,316.594 465.507,315.927 463.508,316.033Z" style="fill:rgb(59,142,74);"/>
            <path d="M407.498,262.089C404.139,262.382 403.061,261.224 402.85,263.565C401.706,276.256 403.39,276.585 404.436,276.789C407.883,277.462 428.314,275.225 428.766,278.444C430.016,287.352 427.234,287.398 426.494,287.41C404.995,287.762 402.905,285.973 402.856,289.527C402.712,300.181 402.209,304.295 405.508,304.329C429.526,304.581 433.045,302.983 433.088,307.509C433.093,308.07 433.148,313.871 432.496,314.496C431.959,315.011 390.828,315.525 389.94,314.179C389.523,313.546 389.15,253.165 390.074,252.136C391.815,250.195 427.268,251.376 430.501,251.483C431.248,251.508 434.633,251.621 432.755,260.554C432.345,262.507 431.219,262.088 407.498,262.089Z" style="fill:rgb(58,141,72);"/>
            <path d="M845.042,330.446C840.639,342.844 829.336,335.71 829.579,329.499C829.847,322.633 826.323,325.315 819.519,325.629C816.474,325.77 821.35,336.029 810.49,337.105C810.414,337.113 802.714,336.929 802.984,328.533C803.083,325.471 802.257,325.724 799.427,324.712C789.353,321.111 767.245,281.734 763.8,284.891C754.451,293.459 756.108,294.818 756.072,307.498C756.054,313.712 756.176,316.939 750.435,314.628C749.507,314.255 749.487,313.891 749.523,264.5C749.527,257.981 748.295,251.373 752.499,251.46C757.922,251.572 756.078,254.055 756.065,259.5C756.016,280.433 755.149,285.827 758.32,282.309C786.747,250.775 787.68,251.59 788.502,251.519C794.362,251.017 794.444,252.006 794.287,252.448C793.835,253.724 769.92,277.162 770.158,279.547C770.184,279.807 797.943,317.35 801.691,319.056C805.615,320.844 849.973,318.706 850.7,320.342C851.36,321.825 850.509,324.569 847.449,325.259C844.087,326.018 844.769,327.057 845.042,330.446ZM834.245,329.532C837.192,336.306 843.131,328.475 838.54,326.421C835.376,325.006 834.347,329.12 834.245,329.532Z" style="fill:rgb(98,151,72);"/>
            <path d="M250.802,247.36C259.173,278.121 251.629,287.077 231.751,298.926C221.819,304.847 230.933,305.856 231.488,305.866C239.381,306.006 242.966,303.117 245.211,302.082C245.804,303.03 248.694,303.46 245.279,306.305C243.518,307.772 243.877,313.319 230.616,318.767C216.862,324.417 208.321,316.278 193.202,335.181C190.308,338.8 192.68,330.929 192.786,330.575C192.911,330.163 192.894,330.191 194.238,325.396C196.488,320.38 201.395,305.507 220.413,290.42C225.646,286.269 226.204,287.169 228.272,285.182C228.847,284.629 228.815,284.562 228.785,284.5C228.324,283.532 227.752,284.092 227.285,283.113C229.649,281.46 247.731,268.811 249.109,254.421C249.548,249.832 249.784,249.886 249.693,249.5C249.156,247.22 250.55,247.845 250.802,247.36Z" style="fill:rgb(110,158,62);"/>
            <path d="M616.531,263.422C616.009,263.493 616.358,262.83 615.841,262.901C615.785,262.908 615.765,262.911 615.559,263.555C614.601,266.535 614.87,266.629 600.834,300.633C596.308,311.598 596.377,315.362 591.465,314.865C588.002,314.514 583.414,298.78 577.13,284.672C572.356,273.955 567.761,258.42 567.342,264.435C567.12,267.633 568.305,267.61 568.054,304.5C568.006,311.59 570.609,315.276 563.462,314.877C560.387,314.706 561.325,307.81 561.36,300.5C561.584,253.511 560.383,251.637 563.498,251.481C569,251.205 569.795,251.165 571.903,256.319C578.67,272.865 578.856,272.696 590.879,302.321C592.366,305.985 593.332,303.646 593.407,303.438C596.742,294.206 611.436,259.137 613.043,255.301C615.076,250.449 616.172,251.214 621.495,251.525C623.372,251.634 623.133,254.563 622.994,272.498C622.678,313.37 623.639,314.636 621.578,314.847C617.791,315.235 616.64,315.343 616.516,311.5C615.763,288.194 616.947,268.31 617.171,264.561C616.958,264.182 616.744,263.802 616.531,263.422Z" style="fill:rgb(100,152,73);"/>
            <path d="M282.731,271.501C282.716,257.288 282.37,252.377 283.613,251.718C285.065,250.947 319.393,251.388 322.504,251.428C326.257,251.476 324.923,260.968 324.454,261.458C323.177,262.793 299.167,261.729 297.4,262.124C296.265,262.378 295.264,262.602 296.052,276.602C296.233,279.823 317.723,277.326 320.53,278.433C321.634,278.868 321.589,285.853 321.585,286.504C321.561,290.214 319.41,288.478 298.466,289.015C294.029,289.128 296.612,298.805 295.95,312.522C295.834,314.93 293.98,315.279 284.448,314.874C282.529,314.792 282.657,313.69 282.731,271.501Z" style="fill:rgb(57,140,71);"/>
            <g transform="matrix(1.001792,0,0,1.003698,-0.328146,-0.480013)">
                <path d="M250.802,247.36C250.55,247.845 249.156,247.22 249.693,249.5C249.784,249.886 249.548,249.832 249.109,254.421C247.731,268.811 229.649,281.46 227.285,283.113C224.042,285.218 194.594,301.125 186.048,330.37C185.101,333.611 185.818,333.848 183.719,336.48C183.318,331.77 179.205,304.443 199.522,281.519C218.482,260.126 240.654,264.979 248.44,245.446C249.479,242.839 250.733,247.127 250.802,247.36Z" style="fill:rgb(124,170,69);"/>
            </g>
            <path d="M638.694,294.581C639.584,292.232 639.613,292.28 650.033,265.302C654.236,254.421 653.704,251.234 659.502,251.459C662.673,251.582 663.613,255.919 673.354,281.561C674.119,283.574 674.232,283.46 683.115,306.64C684.682,310.73 688.533,316.086 680.439,314.777C677.291,314.268 674.79,298.375 671.489,297.546C670.347,297.26 646.925,297.432 645.512,297.574C643.064,297.821 640.814,308.149 638.231,313.369C637.041,315.773 632.112,314.919 631.748,314.334C630.863,312.912 631.565,312.824 638.694,294.581ZM659.148,260.839C657.757,260.816 657.57,261.386 657.526,261.52C652.831,275.783 647.085,289.192 646.878,290.526C646.611,292.246 647.67,292.829 668.587,291.88C672.452,291.705 663.227,274.032 659.148,260.839Z" style="fill:rgb(101,151,73);"/>
            <path d="M227.285,283.113C227.752,284.092 228.324,283.532 228.785,284.5C228.815,284.562 228.847,284.629 228.272,285.182C226.204,287.169 225.646,286.269 220.413,290.42C201.395,305.507 196.488,320.38 194.238,325.396C192.894,330.191 192.911,330.163 192.786,330.575C192.68,330.929 190.308,338.8 193.202,335.181C208.321,316.278 216.862,324.417 230.616,318.767C243.877,313.319 243.518,307.772 245.279,306.305C248.694,303.46 245.804,303.03 245.211,302.082C245.406,301.92 249.893,297.623 249.742,300.44C249.453,305.825 243.572,321.921 233.161,329.056C210.795,344.383 194.157,332.753 188.584,352.566C187.072,357.939 183.926,337.808 183.719,336.48C185.818,333.848 185.101,333.611 186.048,330.37C194.594,301.125 224.042,285.218 227.285,283.113Z" style="fill:rgb(71,128,54);"/>
            <path d="M223.805,208.337C224.964,210.273 225.002,210.149 225.558,211.475C243.611,254.537 205.55,260.683 193.971,280.873C193.824,281.131 187.313,292.484 190.643,282.518C198.864,257.91 203.229,250.485 206.99,243.632C208.971,240.021 210.783,240.303 209.395,236.353C222.674,221.674 220.038,211.801 222.084,209.5C222.544,208.983 223.345,208.854 223.805,208.337Z" style="fill:rgb(129,173,70);"/>
            <path d="M809.501,314.885C806.236,314.613 804.752,315.766 804.697,312.493C804.616,307.67 803.712,253.845 805.135,252.196C805.318,251.984 805.312,251.342 840.5,251.454C846.897,251.474 843.6,257.024 842.453,257.116C835.33,257.686 812.02,255.792 811.325,258.45C811.311,258.504 810.982,277.761 811.549,278.472C813.4,280.793 839.447,277.512 840.231,280.579C841.679,286.236 838.384,284.923 832.5,284.936C815.129,284.975 811.267,284.082 811.237,287.485C811.052,307.727 810.691,308.276 812.287,308.905C815.601,310.212 843.731,307.596 844.541,310.487C845.742,314.776 842.928,314.856 842.543,314.867C839.901,314.943 839.917,314.863 809.501,314.885Z" style="fill:rgb(100,152,72);"/>
            <path d="M858.5,257.139C858.343,257.138 849.632,257.966 849.018,255.637C847.563,250.124 850.843,251.495 856.5,251.47C859.62,251.457 894.618,251.303 895.504,251.48C897.442,251.87 898.448,257.059 894.49,257.145C878.525,257.492 876.287,255.545 876.175,259.481C875.845,271.141 876.838,313.252 875.49,314.487C875.169,314.781 870.147,315.733 869.702,313.454C869.33,311.552 870.172,258.878 869.222,257.734C868.477,256.837 860.856,257.139 858.5,257.139Z" style="fill:rgb(103,152,74);"/>
            <path d="M810.5,326.135C810.88,326.282 814.686,327.759 813.285,330.399C810.858,334.971 804.179,328.478 810.5,326.135Z" style="fill:rgb(248,249,238);"/>
            <path d="M147.489,267.694C149.013,268.362 150.184,267.922 149.431,269.411C149.338,269.596 147.345,271.801 147.489,267.694Z" style="fill:rgb(71,144,67);"/>
        </g>
    </g>
</svg>
